<svg xmlns="http://www.w3.org/2000/svg" viewBox="0 0 26 26">
    <g fill="#fff" fill-rule="evenodd" transform="translate(5 -1031.362)">
        <circle cx="8" cy="1044.362" r="13" fill="#ffa40b"/>
        <path fill="#ff7712" d="M12.837891 25.992188A12.999989 12.999989 0 0 0 13 26a12.999989 12.999989 0 0 0 .919922-.033203 12.999989 12.999989 0 0 0 1.289062-.15625 12.999989 12.999989 0 0 0 1.267578-.285156 12.999989 12.999989 0 0 0 1.234376-.408203 12.999989 12.999989 0 0 0 1.185546-.53125 12.999989 12.999989 0 0 0 1.126954-.646485 12.999989 12.999989 0 0 0 1.05664-.755859 12.999989 12.999989 0 0 0 .976563-.857422 12.999989 12.999989 0 0 0 .886718-.951172 12.999989 12.999989 0 0 0 .785157-1.035156 12.999989 12.999989 0 0 0 .679687-1.107422 12.999989 12.999989 0 0 0 .566406-1.169922 12.999989 12.999989 0 0 0 .445313-1.220703 12.999989 12.999989 0 0 0 .320312-1.259766 12.999989 12.999989 0 0 0 .195313-1.285156 12.999989 12.999989 0 0 0 .025391-.492187L20 7.84375a.52657511.52657511 0 0 0-.542969-.5253906.52657511.52657511 0 0 0-.248047.0683594l-1.945312 1.1230468A.52657511.52657511 0 0 0 17 8.9667969v2.1875001l-1-1a.52657505.52657505 0 0 0-.542969-.5253908.52657505.52657505 0 0 0-.248047.0683594l-1.945312 1.1230464A.52657505.52657505 0 0 0 13 11.277344v2.185547l-1-1a.52657511.52657511 0 0 0-.542969-.525391.52657511.52657511 0 0 0-.248047.068359l-1.9453121 1.123047A.52657511.52657511 0 0 0 9 13.585938v2.189453l-1-1A.52657511.52657511 0 0 0 7.4570312 14.25a.52657511.52657511 0 0 0-.2480468.068359l-1.9453125 1.123047A.52657511.52657511 0 0 0 5 15.898438v2.255859a.52657511.52657511 0 0 0 .5273438.527344l7.3105472 7.310547z" color="#000"
              style="line-height:normal;text-indent:0;text-align:start;text-decoration-line:none;text-decoration-style:solid;text-decoration-color:#000;text-transform:none;block-progression:tb;isolation:auto;mix-blend-mode:normal" transform="translate(-5 1031.362)"/>
        <path d="M15.457031 3.6386719a.52657511.52657511 0 0 0-.248047.070312l-1.945312 1.1230473A.52657511.52657511 0 0 0 13 5.2871094v9.1855466A.52657511.52657511 0 0 0 13.527344 15h1.945312A.52657511.52657511 0 0 0 16 14.472656V4.1640625a.52657511.52657511 0 0 0-.542969-.5253906Zm-.511719 1.4375v8.8691401h-.890624V5.5917969l.890624-.515625zm-3.488281.8730469a.52657505.52657505 0 0 0-.248047.070312L9.2636719 7.1425781A.52657505.52657505 0 0 0 9 7.5976562v6.8749998A.52657505.52657505 0 0 0 9.5273438 15h1.9453122A.52657505.52657505 0 0 0 12 14.472656V6.4746094a.52657505.52657505 0 0 0-.542969-.5253906Zm-.511719 1.4375v6.5585932h-.890624V7.9023438l.890624-.515625zm-3.4882808.8710937a.52657511.52657511 0 0 0-.2480468.0703125L5.2636719 9.4511719A.52657511.52657511 0 0 0 5 9.90625v4.566406A.52657511.52657511 0 0 0 5.5273438 15h1.9453124A.52657511.52657511 0 0 0 8 14.472656V8.7832031a.52657511.52657511 0 0 0-.5429688-.5253906Zm-.5117187 1.4375v4.2499995h-.890625v-3.734374l.890625-.5156255zm-3.4882813.8730465a.52657511.52657511 0 0 0-.2480468.07031l-1.9453125 1.12305A.52657511.52657511 0 0 0 1 12.216797v2.255859A.52657511.52657511 0 0 0 1.5273438 15h1.9453124A.52657511.52657511 0 0 0 4 14.472656V11.09375a.52657511.52657511 0 0 0-.5429688-.525391Zm-.5117187 1.4375v1.939453h-.890625v-1.423828l.890625-.515625z" color="#000"
              style="line-height:normal;text-indent:0;text-align:start;text-decoration-line:none;text-decoration-style:solid;text-decoration-color:#000;text-transform:none;block-progression:tb;isolation:auto;mix-blend-mode:normal" transform="translate(-1 1035.043)"/>
    </g>
</svg>